<svg width="24" height="24" viewBox="0 0 24 24" fill="none" xmlns="http://www.w3.org/2000/svg">
<path d="M6.37604 10.068C6.16329 10.6899 6.05516 11.3427 6.05604 12C6.05604 12.734 6.18804 13.437 6.43204 14.086C6.73615 14.8972 7.21384 15.6321 7.83168 16.2393C8.44952 16.8466 9.19259 17.3115 10.0089 17.6015C10.8252 17.8916 11.695 17.9998 12.5575 17.9185C13.42 17.8372 14.2543 17.5684 15.002 17.131H15.003C16.1811 16.4404 17.0862 15.3661 17.567 14.088H12.22V10.132H21.825C22.0735 11.4405 22.0585 12.7854 21.781 14.088C21.3003 16.3399 20.0569 18.3568 18.261 19.798C16.4872 21.2264 14.2774 22.0035 12 22C10.283 22.001 8.59467 21.5597 7.09768 20.7187C5.60069 19.8778 4.3455 18.6655 3.45305 17.1986C2.56061 15.7317 2.06098 14.0597 2.0023 12.3437C1.94362 10.6276 2.32788 8.92542 3.11804 7.401C3.96101 5.77291 5.23543 4.40796 6.80192 3.4554C8.36841 2.50284 10.1667 1.99936 12 2C14.426 2 16.651 2.864 18.383 4.302L15.143 6.954C14.3841 6.48164 13.5284 6.18643 12.6396 6.09034C11.7508 5.99424 10.8518 6.09972 10.0094 6.39894C9.16694 6.69816 8.40282 7.18342 7.77379 7.81864C7.14475 8.45386 6.667 9.2227 6.37604 10.068Z" fill="#231F20"/>
</svg>
