<svg width="24" height="24" viewBox="0 0 24 24" fill="none" xmlns="http://www.w3.org/2000/svg">
<path d="M8.31579 6.55263H22V5.55263H8.31579V6.55263ZM8.31579 12.8684H22V11.8684H8.31579V12.8684ZM8.31579 19.1842H22V18.1842H8.31579V19.1842ZM3.60526 6.05263C3.60526 6.35784 3.35784 6.60526 3.05263 6.60526V7.60526C3.91013 7.60526 4.60526 6.91013 4.60526 6.05263H3.60526ZM3.05263 6.60526C2.74742 6.60526 2.5 6.35784 2.5 6.05263H1.5C1.5 6.91013 2.19514 7.60526 3.05263 7.60526V6.60526ZM2.5 6.05263C2.5 5.74742 2.74742 5.5 3.05263 5.5V4.5C2.19514 4.5 1.5 5.19514 1.5 6.05263H2.5ZM3.05263 5.5C3.35784 5.5 3.60526 5.74742 3.60526 6.05263H4.60526C4.60526 5.19514 3.91013 4.5 3.05263 4.5V5.5ZM3.60526 12.3684C3.60526 12.6736 3.35784 12.9211 3.05263 12.9211V13.9211C3.91013 13.9211 4.60526 13.2259 4.60526 12.3684H3.60526ZM3.05263 12.9211C2.74742 12.9211 2.5 12.6736 2.5 12.3684H1.5C1.5 13.2259 2.19514 13.9211 3.05263 13.9211V12.9211ZM2.5 12.3684C2.5 12.0632 2.74742 11.8158 3.05263 11.8158V10.8158C2.19514 10.8158 1.5 11.5109 1.5 12.3684H2.5ZM3.05263 11.8158C3.35784 11.8158 3.60526 12.0632 3.60526 12.3684H4.60526C4.60526 11.5109 3.91013 10.8158 3.05263 10.8158V11.8158ZM3.60526 18.6842C3.60526 18.9894 3.35784 19.2368 3.05263 19.2368V20.2368C3.91013 20.2368 4.60526 19.5417 4.60526 18.6842H3.60526ZM3.05263 19.2368C2.74742 19.2368 2.5 18.9894 2.5 18.6842H1.5C1.5 19.5417 2.19514 20.2368 3.05263 20.2368V19.2368ZM2.5 18.6842C2.5 18.379 2.74742 18.1316 3.05263 18.1316V17.1316C2.19514 17.1316 1.5 17.8267 1.5 18.6842H2.5ZM3.05263 18.1316C3.35784 18.1316 3.60526 18.379 3.60526 18.6842H4.60526C4.60526 17.8267 3.91013 17.1316 3.05263 17.1316V18.1316Z" fill="#1A1A1A"/>
</svg>
