<svg width="24" height="24" viewBox="0 0 24 24" fill="none" xmlns="http://www.w3.org/2000/svg">
<path d="M19.612 5.4322C19.1722 4.97815 18.65 4.61797 18.0752 4.37222C17.5005 4.12648 16.8844 4 16.2623 4C15.6401 4 15.0241 4.12648 14.4493 4.37222C13.8746 4.61797 13.3524 4.97815 12.9126 5.4322L11.9998 6.37407L11.087 5.4322C10.1986 4.51548 8.99364 4.00048 7.73725 4.00048C6.48085 4.00048 5.27591 4.51548 4.38751 5.4322C3.4991 6.34891 3 7.59225 3 8.88868C3 10.1851 3.4991 11.4284 4.38751 12.3452L5.30029 13.287L11.9998 20.2L18.6992 13.287L19.612 12.3452C20.0521 11.8913 20.4011 11.3525 20.6393 10.7594C20.8774 10.1663 21 9.53065 21 8.88868C21 8.24671 20.8774 7.61103 20.6393 7.01795C20.4011 6.42488 20.0521 5.88603 19.612 5.4322V5.4322Z" stroke="#1A1A1A" stroke-linecap="round" stroke-linejoin="round"/>
</svg>
