<svg width="24" height="25" viewBox="0 0 24 25" fill="none" xmlns="http://www.w3.org/2000/svg">
<path d="M9.031 11.359L15.178 14.941M15.169 5.059L9.031 8.641M20.2 3.7C20.2 5.19117 18.9912 6.4 17.5 6.4C16.0088 6.4 14.8 5.19117 14.8 3.7C14.8 2.20883 16.0088 1 17.5 1C18.9912 1 20.2 2.20883 20.2 3.7ZM9.4 10C9.4 11.4912 8.19117 12.7 6.7 12.7C5.20883 12.7 4 11.4912 4 10C4 8.50883 5.20883 7.3 6.7 7.3C8.19117 7.3 9.4 8.50883 9.4 10ZM20.2 16.3C20.2 17.7912 18.9912 19 17.5 19C16.0088 19 14.8 17.7912 14.8 16.3C14.8 14.8088 16.0088 13.6 17.5 13.6C18.9912 13.6 20.2 14.8088 20.2 16.3Z" stroke="#1A1A1A" stroke-linecap="round" stroke-linejoin="round"/>
</svg>
