<svg width="24" height="24" viewBox="0 0 24 24" fill="none" xmlns="http://www.w3.org/2000/svg">
<path d="M9.72667 13.057L14.28 15.843M14.2733 8.157L9.72667 10.943M18 7.1C18 8.2598 17.1046 9.2 16 9.2C14.8954 9.2 14 8.2598 14 7.1C14 5.9402 14.8954 5 16 5C17.1046 5 18 5.9402 18 7.1ZM10 12C10 13.1598 9.10457 14.1 8 14.1C6.89543 14.1 6 13.1598 6 12C6 10.8402 6.89543 9.9 8 9.9C9.10457 9.9 10 10.8402 10 12ZM18 16.9C18 18.0598 17.1046 19 16 19C14.8954 19 14 18.0598 14 16.9C14 15.7402 14.8954 14.8 16 14.8C17.1046 14.8 18 15.7402 18 16.9Z" stroke="#1A1A1A" stroke-linecap="round" stroke-linejoin="round"/>
</svg>
